<?xml version="1.0" encoding="utf-8" ?><svg xmlns="http://www.w3.org/2000/svg" xmlns:xlink="http://www.w3.org/1999/xlink" width="772" height="600" viewBox="0 0 772 600"><path fill="#B1511C" transform="matrix(0.670139 0 0 0.669643 0 1.52588e-05)" d="M700.631 535.428L703.962 537.105C721.551 546.022 748.138 559.358 754.409 579.291C759.122 594.276 752.756 608.688 746.03 621.716C754.023 615.362 761.275 609.219 763.554 598.726C764.25 595.523 764.435 585.058 766.86 583.58C776.744 586.13 779.633 604.34 778.179 612.886C771.745 650.715 740.491 684.255 711.757 707.183C655.63 752 585.983 779.081 514.005 781.296C507.319 781.502 459.305 780.16 456.07 776.045C457.135 774.364 470.731 773.517 473.763 773.077C509.105 767.949 542.166 759.173 576.337 748.826C629.304 732.788 688.166 715.413 713.769 661.362C690.522 682.456 663.434 703.838 635.038 717.294C572.594 746.883 506.684 740.964 445.169 712.187C432.385 706.207 419.857 698.635 407.318 692.057C386.446 680.857 364.755 671.254 342.432 663.329C349.146 668.764 357.68 674.469 364.812 679.507C380.504 690.614 396.346 701.508 412.333 712.184C420.316 717.554 430.693 724.001 437.992 729.764C404.587 723.915 350.576 693.764 321.908 674.564C288.518 652.202 240.646 605.1 197.925 606.532L195.144 607.195C195.58 608.191 195.728 607.946 197.131 608.498C216.634 615.297 234.478 626.145 249.49 640.329C226.061 630.035 203.305 618.875 178.078 613.583C171.238 612.149 164.339 611.127 157.468 609.84C162.159 606.669 168.958 603.213 174.266 601.076C255.349 568.426 335.45 614.247 408.88 644.952C362.805 607.077 301.802 577.769 241.599 575.303C234.63 575.017 227.123 575.035 220.262 574.174L219.389 574.06C231.784 569.337 245.578 566.304 258.651 564.877C326.42 557.477 390.006 585.941 447.245 619.119C455.828 624.095 464.584 628.38 472.412 634.689C447.544 627.506 421.56 618.453 396.47 610.782C482.331 675.439 619.166 710.611 707.37 631.382C720.515 619.574 733.663 603.646 734.701 585.218C736.077 560.772 714.927 551.124 701.222 536.085L700.631 535.428ZM640.53 689.222C641.536 688.854 641.66 688.705 642.549 688.086C641.056 687.521 638.815 687.964 637.14 688.136C601.194 693.583 568.679 695.641 532.261 691.549C516.348 689.761 500.429 685.232 484.687 684.831C479.435 684.697 476.848 687.93 473.867 691.616C489.583 693.173 504.302 698.457 519.602 702.217C560.199 712.192 602.626 706.879 640.53 689.222Z"/><path fill="#EDEBE8" fill-opacity="0.027450981" transform="matrix(0.670139 0 0 0.669643 0 1.52588e-05)" d="M637.14 688.136C638.815 687.964 641.056 687.521 642.549 688.086C641.66 688.705 641.536 688.854 640.53 689.222C639.705 688.849 638.069 688.417 637.14 688.136Z"/><path fill="#F6B945" transform="matrix(0.670139 0 0 0.669643 0 1.52588e-05)" d="M756.918 229.513L768.107 229.54C770.095 235.022 771.657 242.474 773.578 248.343C775.718 254.881 778.272 261.353 780.235 267.835C778.641 275.728 774.546 283.39 774.674 291.558C774.912 306.834 804.534 363.212 803.207 370.545C802.929 372.086 801.585 373.344 800.338 374.167C797.934 375.754 794.604 376.823 791.743 376.987C785.664 377.336 779.93 374.539 773.911 374.444C767.878 374.348 761.307 377.591 755.358 376.013C753.62 375.553 752.067 374.601 751.197 372.984C749.756 370.31 750.276 366.291 751.322 363.574C753.634 357.564 759.688 355.066 765.153 352.712C759.277 352.838 755.789 352.717 750.723 356.051C743.172 361.02 740.17 372.696 745.577 380.201C749.998 386.338 759.665 386.715 766.643 387.78C767.95 395.253 769.686 403.135 771.201 410.604C767.512 410.819 760.666 411.087 757.267 411.892C742.244 415.45 739.146 418.867 724.121 414.473C723.017 417.04 722.11 419.592 721.154 422.215C731.046 422.688 741.42 424.878 751.355 425.126C756.695 425.259 765.685 426.295 767.991 431.787C772.199 441.813 753.109 439.517 749.816 447.266C749.83 456.509 766.273 467.709 757.911 487.243C742.511 523.219 698.792 512.688 669.931 502.874C656.616 498.346 619.716 480.003 614.003 468.058L614.572 467.418C617.149 467.759 618.686 469.093 620.889 470.553C644.17 486.488 703.249 507.772 730.376 495.031C708.688 488.574 691.592 485.127 674.351 468.422C657.131 451.739 651.381 436.015 650.932 412.585C661.93 417.585 660.985 419.578 674.758 422.259C663.301 410.233 658.482 409.84 652.571 392.993C657.514 396.899 664.968 403.674 671.734 402.378C671.168 400.126 661.839 391.472 660.002 388.421C656.447 382.517 655.244 378.771 653.202 372.375C659.633 376.887 663.052 379.792 670.473 382.492C661.892 369.395 658.803 364.98 652.797 350.561C660.209 357.385 663.802 361.63 673.622 363.946C666.684 348.713 647.061 334.486 644.981 317.952C643.479 306.009 664.563 284.517 671.612 275.468C672.934 273.552 675.769 270.79 676.943 268.951C690.306 248.004 703.617 247.453 727.201 248.554C736.878 249.007 748.981 249.434 759.56 249.206C758.597 242.895 757.358 235.8 756.918 229.513ZM676.59 286.205C678.176 290.275 680.229 295.755 682.31 299.485C695.66 301.972 725.055 305.456 734.003 315.193C735.816 318.287 736.566 319.834 737.955 323.147C756.505 310.908 761.758 311.422 750.143 289.901C754.26 284.58 760.139 278.746 763.372 273.368C748.602 273.377 739.393 264.8 720.615 266.206C704.011 268.711 689.273 275.072 676.59 286.205Z"/><path fill="#E49B29" transform="matrix(0.670139 0 0 0.669643 0 1.52588e-05)" d="M725.676 284.833C727.751 284.489 730.469 284.477 732.376 285.466L732.519 286.192C728.974 289.308 710.345 293.228 705.21 294.472C701.989 295.206 699.417 295.319 696.134 295.558C706.853 288.014 712.679 286.285 725.676 284.833Z"/><path fill="#F6B945" transform="matrix(0.670139 0 0 0.669643 0 1.52588e-05)" d="M724.788 294.89L726.453 294.84C728.081 296.862 727.473 303.75 727.402 306.648C724.541 305.692 722.091 304.683 719.303 303.529C716.665 302.6 712.378 301.811 713.149 298.498C716.018 296.112 721.01 295.585 724.788 294.89Z"/><defs><linearGradient id="gradient_0" gradientUnits="userSpaceOnUse" x1="338.14084" y1="238.14476" x2="339.88132" y2="109.20763"><stop offset="0" stop-color="#D2761F"/><stop offset="1" stop-color="#E8A529"/></linearGradient></defs><path fill="url(#gradient_0)" transform="matrix(0.670139 0 0 0.669643 0 1.52588e-05)" d="M148.106 94.9369C159.473 95.3299 176.067 99.286 188 100.914C209.494 103.656 231.081 105.623 252.716 106.811C293.269 109.064 333.846 110.877 374.438 112.25C389.304 112.842 403.968 112.501 418.873 113.574C456.622 116.292 510.331 125.685 517.237 171.167C517.345 171.878 516.953 172.637 516.658 173.215C495.966 177.035 472.539 193.377 476.141 217.472C477.692 227.849 486.007 234.844 491.97 242.744C486.441 239.975 481.79 236.793 476.732 234.223C476.119 233.444 474.969 232.857 474.07 232.284C469.28 231.599 462.7 246.613 451.329 239.563C429.213 225.852 461.833 219.921 470.96 203.681C458.903 206.676 448.138 216.885 435.866 216.346C429.883 216.083 414.867 204.911 425.946 198.981C432.567 195.437 469.637 190.439 470.41 182.635C464.121 176.199 426.405 194.561 414.725 186.671C411.965 185.468 409.887 183.352 408.876 180.443C408.128 178.29 407.172 172.43 410.716 171.659C418.77 169.906 463.542 171.654 466.648 165.455C462.277 156.462 422.149 164.237 412.705 161.721C397.952 157.791 394.121 142.572 414.106 142.798C435.32 143.039 450.849 146.78 471.023 152.674C463.555 145.651 454.148 141.102 443.999 139.475C405.413 133.288 365.559 138.87 326.625 138.405C291.656 138.328 256.372 139.465 221.481 136.677C210.199 135.776 191.627 134.987 181.67 129.758C167.722 122.256 154.481 109.616 148.106 94.9369Z"/><path fill="#F6B945" transform="matrix(0.670139 0 0 0.669643 0 1.52588e-05)" d="M148.106 94.9369C159.473 95.3299 176.067 99.286 188 100.914C209.494 103.656 231.081 105.623 252.716 106.811C293.269 109.064 333.846 110.877 374.438 112.25C389.304 112.842 403.968 112.501 418.873 113.574C456.622 116.292 510.331 125.685 517.237 171.167C517.345 171.878 516.953 172.637 516.658 173.215C513.11 171.107 508.555 159.495 505.275 155.394C473.895 116.159 402.053 120.027 357.58 118.85C292.145 117.119 228.465 117.466 164.442 105.899C168.262 112.736 176.068 119.385 180.799 125.842C182.231 127.797 182.004 127.856 181.67 129.758C167.722 122.256 154.481 109.616 148.106 94.9369Z"/><path fill="#B1511C" transform="matrix(0.670139 0 0 0.669643 0 1.52588e-05)" d="M930.777 278.043C945.779 276.913 959.575 279.783 972.15 288.285C985.889 297.701 995.307 312.205 998.321 328.585C1000.27 339.067 999.509 349.872 996.116 359.979C991.049 374.821 977.526 392.821 968.319 406.076L939.148 448.04C937.457 450.525 936.618 451.59 934.595 453.813C929.624 447.321 921.78 434.536 917.75 427.278C904.71 403.79 878.171 373.604 874.888 347.045C872.779 330.556 877.461 313.918 887.861 300.949C898.747 287.225 913.588 280.012 930.777 278.043ZM942.483 378.771C963.519 375.517 977.907 355.792 974.578 334.769C971.25 313.747 951.472 299.43 930.46 302.832C909.553 306.217 895.322 325.874 898.633 346.792C901.945 367.709 921.553 382.009 942.483 378.771Z"/><path fill="#F6B945" transform="matrix(0.670139 0 0 0.669643 0 1.52588e-05)" d="M931.984 313.681C946.998 310.879 961.439 320.783 964.234 335.796C967.029 350.81 957.119 365.246 942.103 368.034C927.096 370.821 912.67 360.919 909.876 345.914C907.083 330.909 916.98 316.48 931.984 313.681Z"/><path fill="#D3791D" transform="matrix(0.670139 0 0 0.669643 0 1.52588e-05)" d="M763.073 181.882C766.229 181.225 772.723 181.567 775.878 182.457C796.601 188.306 818.049 192.529 838.362 199.608C844.628 201.791 849.912 204.23 855.312 207.91C846.754 208.585 838.093 208.629 829.494 209.168C778.215 212.381 730.8 222.393 681.3 236.243C592.063 261.227 505.854 295.976 424.236 339.86C403.229 351.213 382.497 363.069 362.059 375.417C347.232 384.444 330.867 395.344 315.516 403.089C318.948 394.805 332.352 374.361 337.741 365.043C350.657 342.713 358.076 325.28 367.931 301.669C369.911 297.04 371.369 291.845 373.482 286.84C373.936 300.381 372.343 309.05 370.493 322.353C378.153 318.732 388.133 312.481 395.393 308.369C407.189 301.688 469.907 268.978 478.868 272.642L478.941 273.538C476.339 276.41 442.297 292.446 435.356 296.242C420.411 304.415 405.674 312.963 391.159 321.878C384.072 326.165 377.018 330.418 370.04 334.906C361.637 340.311 360.949 349.58 359.377 359.029C366.888 355.712 382.788 344.865 390.815 340.231C406.885 330.953 423.099 321.355 439.573 312.777C469.322 297.601 499.495 283.272 530.057 269.808C584.917 244.56 640.913 221.858 697.867 201.774C713.708 196.13 747.657 183.66 763.073 181.882Z"/><path fill="#B1511C" transform="matrix(0.670139 0 0 0.669643 0 1.52588e-05)" d="M284.241 529.143C291.771 525.149 303.759 523.745 312.276 522.419C351.245 516.352 387.201 515.615 425.224 527.529C450.129 535.332 471.53 546.125 493.502 560.502C502.599 566.454 512.043 574.761 521.39 579.98C532.866 586.387 547.087 590.385 559.203 595.761C600.521 614.096 649.612 634.65 693.57 612.148C701.783 607.944 706.391 603.093 713.618 598.256C690.952 649.093 588.495 665.199 541.878 643.231C529.637 637.463 513.206 626.651 504.042 616.731C510.114 619.085 519.067 623.143 524.679 625.027C540.119 630.209 574.559 638.701 590.623 637.76C606.284 639.107 621.593 637.677 637.092 635.753C629.7 635.132 621.164 634.409 613.843 634.399C604.105 633.228 594.735 632.589 584.935 630.895C558.571 626.336 525.676 616.243 503.914 600.071C472.818 576.964 442.085 556.394 404.673 544.493C377.019 535.497 346.366 531.028 317.257 529.767C306.354 529.274 294.918 529.777 284.241 529.143Z"/><defs><linearGradient id="gradient_1" gradientUnits="userSpaceOnUse" x1="587.3642" y1="414.77283" x2="645.61804" y2="609.84064"><stop offset="0" stop-color="#D2731C"/><stop offset="1" stop-color="#FDC038"/></linearGradient></defs><path fill="url(#gradient_1)" transform="matrix(0.670139 0 0 0.669643 0 1.52588e-05)" d="M542.055 414.126C547.407 417.427 549.605 419.348 553.654 424.17C558.981 431.991 564.492 443.217 569.291 450.284C585.808 474.603 630.926 539.724 656.058 548.273C658.15 539.943 661.651 525.906 665.314 518.215C669.539 519.408 673.781 520.538 678.04 521.604C674.949 535.954 670.855 549.091 669.917 563.871C669.148 576.006 670.665 588.385 669.87 600.339C660.167 611.312 641.389 610.489 630.461 600.96C623.783 595.137 620.004 584.385 613.05 578.386C594.435 559.29 577.829 550.141 563.56 526.61C573.032 532.808 582.599 539.82 593.412 543.126C582.856 529.036 564.861 512.915 558.279 497.366C566.36 501.831 574.526 508.385 581.827 512.187C569.766 495.28 554.04 478.455 550.377 458.222C558.121 467.623 562.394 473.246 571.538 481.399C567.249 473.932 556.747 455.249 553.617 447.83C552.152 445.082 550.637 441.218 549.39 438.263C548.331 435.481 547.331 432.677 546.393 429.853C544.416 426.25 542.896 418.309 542.055 414.126Z"/><path fill="#D3791D" transform="matrix(0.670139 0 0 0.669643 0 1.52588e-05)" d="M542.055 414.126C547.407 417.427 549.605 419.348 553.654 424.17L553.257 424.523C551.571 426.043 549.141 429.276 547.71 429.765C546.773 429.666 547.099 429.53 546.393 429.853C544.416 426.25 542.896 418.309 542.055 414.126Z"/><path fill="#D3791D" transform="matrix(0.670139 0 0 0.669643 0 1.52588e-05)" d="M549.39 438.263C551.219 437.305 551.425 437.039 553.361 437.292C555.24 438.874 553.807 444.664 553.617 447.83C552.152 445.082 550.637 441.218 549.39 438.263Z"/><path fill="#E49B29" transform="matrix(0.670139 0 0 0.669643 0 1.52588e-05)" d="M981.165 418.428C994.204 396.66 1009.38 404.504 1029.05 401.195C1042.6 398.916 1049.02 391.945 1065.42 392.303C1065.4 396.942 1065.25 399.366 1064.63 403.96C1060.04 438.207 1057.91 475.639 1048.28 508.488C1020.04 509.576 1007.99 522.47 982.848 530.993C986.115 508.154 993.756 499.719 1003.09 479.607C1005.5 474.399 1007.24 466.217 1008.29 460.428C1019.77 458.342 1029.36 456.489 1039.82 450.637C1029.17 451.629 1019.32 454.368 1008.83 456.11C1009.63 441.41 1010.79 427.229 1010.12 412.531C1005.61 426.924 1005.19 441.776 1004.54 456.799C987.779 457.459 975.688 455.495 960.608 447.616C962.812 444.048 978.767 420.775 981.165 418.428Z"/><path fill="#F6B945" transform="matrix(0.670139 0 0 0.669643 0 1.52588e-05)" d="M981.165 418.428C994.204 396.66 1009.38 404.504 1029.05 401.195C1042.6 398.916 1049.02 391.945 1065.42 392.303C1065.4 396.942 1065.25 399.366 1064.63 403.96C1049.22 398.117 1043.3 405.561 1028.61 408.662C1017.86 410.929 1005.95 408.141 995.886 413.495C993.156 414.886 985.262 418.548 982.672 419.124C982.238 418.938 981.525 418.675 981.165 418.428Z"/><path fill="#F6B945" transform="matrix(0.670139 0 0 0.669643 0 1.52588e-05)" d="M461.687 87.4739C506.806 63.4904 578.013 73.6961 624.894 88.0549C650.852 95.8296 675.032 108.622 696.063 125.708C699.555 128.524 705.676 133.507 708.722 136.704C704.223 139.686 687.697 144.752 681.528 146.82C668.519 151.135 655.549 155.562 642.617 160.101C623.373 166.882 604.173 173.788 585.018 180.818C574.577 184.686 563.982 189.092 553.488 192.717C550.331 190.68 549.749 190.081 547.149 187.327C567.699 178.387 589.645 170.024 610.531 161.76C627.197 155.166 646.026 147.141 662.923 141.644C658.95 137.869 656.608 135.778 651.765 133.155C636.534 141.991 630.784 147.309 614.087 137.007C623.588 131.803 629.819 131.319 639.849 124.534C633.137 118.286 632.079 118.501 623.999 122.315C618.686 124.823 601.122 131.311 596.209 127.829C595.608 123.853 609.068 113.691 612.555 110.591C610.434 109.171 608.666 107.922 606.343 106.812C596.658 111.11 586.18 118.449 575.256 117.995L574.532 117.533C574.974 114.119 581.93 108.535 584.929 105.448C579.287 105.41 570.924 105.514 565.486 104.913C549.137 103.105 533.472 100.182 516.981 98.8811L514.013 96.6583C537.628 91.81 560.344 93.7189 584.154 95.1801C585.719 95.4682 589.448 95.8937 590.82 95.146L589.223 94.6558L585.339 93.3397C549.02 82.6111 512.402 82.2772 475.199 86.2106C470.779 86.6779 466.111 87.2377 461.687 87.4739Z"/><path fill="#E49B29" transform="matrix(0.670139 0 0 0.669643 0 1.52588e-05)" d="M807.721 422.409L809.173 422.264C810.637 423.308 814.058 436.12 815.399 439.33C820.408 451.32 827.141 462.488 832.437 474.343C840.083 491.463 845.897 510.688 850.851 528.773C838.473 540.6 828.02 541.325 812.506 535.487C800.272 530.282 795.661 528.703 782.775 528.15C779.956 518.645 777.637 512.774 772.248 504.169C780.886 482.59 777.256 478.514 773.817 457.549C777.594 453.98 780.876 452.01 785.114 447.712C783.984 443.805 782.904 439.884 781.874 435.95C787.774 429.714 799.589 425.311 807.721 422.409Z"/><path fill="#F6B945" transform="matrix(0.670139 0 0 0.669643 0 1.52588e-05)" d="M209.225 307.197C223.969 308.286 242.929 334.913 247.746 347.403C228.054 355.91 201.61 362.321 181.558 370.698C202.8 370.755 230.546 360.994 249.921 353.152L251.681 360.539C247.907 362.372 240.224 364.839 236.014 366.341C226.833 369.705 217.596 372.914 208.307 375.967C202.011 377.974 192.917 380.522 187.238 383.615C207.379 384.465 234.253 373.69 252.882 365.974C253.086 368.168 253.484 370.655 253.785 372.871C242.961 377.158 232.096 381.34 221.191 385.416C208.981 389.395 200.227 392.303 188.322 397.36C195.789 397.795 203.278 397.047 210.512 395.145C219.567 392.845 228.142 389.338 236.853 386.046C241.035 384.465 250.538 378.972 254.479 380.161L255.052 381.294C254.871 382.242 254.614 383.706 253.729 384.244C234.535 395.9 211.691 400.337 190.815 407.873C188.618 408.666 183.459 415.852 181.698 418.161C186.523 391.085 179.74 358.513 157.831 340.688C149.289 333.738 141.058 330.591 130.992 326.882C144.596 323.837 156.591 322.331 170.508 318.575C182.979 315.21 197.2 309.804 209.225 307.197Z"/><path fill="#1B5888" transform="matrix(0.670139 0 0 0.669643 0 1.52588e-05)" d="M122.701 681.315C125.938 681.997 128.228 684.129 130.293 686.603C142.774 701.554 157.092 714.985 171.926 727.518C263.393 804.797 380.567 854.182 499.399 867.827C504.118 868.369 516.968 868.558 520.181 870.464L520.361 871.384L519.059 872.1C509.966 873.316 497.997 874.936 488.803 874.633C432.139 872.767 368.793 856.079 316.372 834.399C253.547 808.417 191.111 768.182 146.347 716.781C137.838 707.01 127.583 693.199 122.701 681.315Z"/><path fill="#1B5888" transform="matrix(0.670139 0 0 0.669643 0 1.52588e-05)" d="M965.128 681.626C965.857 686.354 956.617 699.244 953.621 703.4C933.978 730.657 908.737 752.725 882.279 773.126C874.198 779.357 866.082 785.194 857.486 790.815C794.522 831.507 723.748 858.59 649.702 870.326C631.457 873.193 602.429 875.899 584.151 872.06C583.157 871.623 583.515 871.847 582.78 870.981C583.46 870.274 584.04 869.897 585.034 869.786C628.317 864.973 670.428 854.923 711.776 841.332C731.897 834.718 751.535 827.875 770.99 819.239C826.833 794.768 878.588 761.871 924.448 721.695C932.739 714.453 940.561 707.022 948.331 699.22C953.055 694.476 959.521 685.926 964.621 682.009L965.128 681.626Z"/><path fill="#E49B29" transform="matrix(0.670139 0 0 0.669643 0 1.52588e-05)" d="M563.917 200.85C574.548 196.269 586.326 192.151 597.266 188.051C613.121 181.98 629.017 176.015 644.951 170.155C661.633 163.922 678.413 157.954 695.286 152.255C702.754 149.655 715.689 144.758 723.137 142.84C730.563 148.988 747.384 166.188 753.358 173.832C742.606 177.9 730.115 181.504 719.017 184.945C698.277 191.297 677.591 197.825 656.962 204.53C638.109 210.82 619.303 217.249 600.545 223.819C592.415 226.718 567.2 236.417 560.248 237.249C568.251 228.983 574.58 226.842 584.925 222.574C622.692 206.992 661.413 194.408 699.346 179.321C687.922 181.078 671.635 186.15 660.22 189.557C645.631 193.862 630.979 197.945 616.267 201.807C605.607 204.68 594.468 207.979 583.62 209.753C588.234 205.091 594.72 202.58 600.405 199.09L602.134 197.895L601.73 197.563L598.586 198.151C586.168 200.704 576.675 203.47 563.917 200.85Z"/><path fill="#D3791D" transform="matrix(0.670139 0 0 0.669643 0 1.52588e-05)" d="M200.018 148.963L199.93 147.404C202.112 146.403 228.605 150.374 233.183 150.755C266.599 153.537 296.037 152.706 329.241 152.464C347.636 152.627 368.562 150.148 387.202 149.543C391.336 154.693 395.008 162.178 400.262 168.859C390.63 171.86 379.929 172.974 369.972 174.563C334.469 180.228 262.465 189.431 230.629 177.417C216.685 172.155 206.196 162.479 200.018 148.963Z"/><path fill="#F6B945" transform="matrix(0.670139 0 0 0.669643 0 1.52588e-05)" d="M200.018 148.963L199.93 147.404C202.112 146.403 228.605 150.374 233.183 150.755C266.599 153.537 296.037 152.706 329.241 152.464C329.892 152.68 330.452 152.975 331.078 153.266C330.097 154.526 324.306 155.727 322.736 155.953C294.903 159.948 222.126 163.702 200.018 148.963Z"/><path fill="#E49B29" transform="matrix(0.670139 0 0 0.669643 0 1.52588e-05)" d="M228.397 20.4136C236.708 22.2512 247.433 26.0379 255.81 28.5561C266.03 31.5678 276.354 34.2149 286.762 36.4921C333.395 47.025 385.138 51.7812 429.742 69.7663C435.619 72.1361 452.345 84.3921 443.919 91.1883C442.869 91.4182 432.038 95.8058 431.049 96.3016C418.1 102.795 408.494 102.683 394.341 102.053C386.152 101.689 382.85 100.626 377.316 94.5043C387.317 94.6286 397.192 94.9852 406.935 92.4672C400.37 89.8952 393.032 88.761 386.046 87.8037C376.398 86.4813 376.129 86.7809 373.792 77.313C386.561 78.2492 398.884 82.4967 412.461 83.0177C401.992 75.2666 375.55 71.3051 361.919 68.8298C339.18 64.7845 316.393 61.0124 293.563 57.5143C271.981 54.0787 248.637 53.0044 234.173 34.7454C230.826 29.1962 229.904 26.7275 228.397 20.4136Z"/><path fill="#F6B945" transform="matrix(0.670139 0 0 0.669643 0 1.52588e-05)" d="M228.397 20.4136C236.708 22.2512 247.433 26.0379 255.81 28.5561C266.03 31.5678 276.354 34.2149 286.762 36.4921C333.395 47.025 385.138 51.7812 429.742 69.7663C435.619 72.1361 452.345 84.3921 443.919 91.1883C440.61 86.8184 432.441 77.2544 427.509 75.4172C399.285 64.9039 367.92 60.2406 338.739 53.9099C308.233 47.0517 277.848 39.6612 247.6 31.7417C245.515 31.1949 236.449 28.5413 235.441 29.1311C235.479 31.7308 236.084 33.063 234.173 34.7454C230.826 29.1962 229.904 26.7275 228.397 20.4136Z"/><path fill="#D3791D" transform="matrix(0.670139 0 0 0.669643 0 1.52588e-05)" d="M82.7073 389.366L83.2879 389.591L84.1979 388.601C86.1941 386.379 86.9549 385.383 90.0492 385.295C89.8972 397.328 89.7791 406.864 96.6934 417.396C98.6143 421.206 101.268 426.88 103.58 430.28C121.77 457.459 149.325 451.004 173.739 436.694C180.143 447.839 185.197 459.588 192.049 471.368C174.612 482.283 154.911 485.494 135.721 493.854C132.941 488.823 130.898 484.873 126.999 480.556C128.237 485.955 129.711 490.5 131.16 495.761L125.278 501.277C121.094 496.977 113.884 483.828 108.692 483.114C107.365 481.194 102.432 469.867 101.481 467.423C92.1436 443.426 82.5931 415.338 82.7073 389.366Z"/><path fill="#E49B29" transform="matrix(0.670139 0 0 0.669643 0 1.52588e-05)" d="M883.817 517.047C904.404 516.134 912.479 523.578 930.597 532.883C926.485 559.944 922.272 570.529 912.057 595.955L906.615 594.202C895.534 590.221 872.521 579.461 861.671 573.817C860.862 555.779 860.333 551.689 856.267 534.139C865.145 525.233 870.926 518.799 883.817 517.047Z"/><path fill="#E49B29" transform="matrix(0.670139 0 0 0.669643 0 1.52588e-05)" d="M957.948 451.426C961.482 452.574 966.867 455.218 970.992 456.635C983.233 460.841 991.648 460.725 1004.2 460.73C999.757 484.445 989.995 492.56 982.171 513.816C980.361 518.732 979.588 526.055 979.089 531.395L978.196 532.318C964.73 535.235 947.848 532.411 935.232 527.304C935.753 520.81 936.13 514.306 936.362 507.795C936.529 502.194 935.796 486.194 937.797 482.184C942.405 472.948 951.848 460.148 957.948 451.426Z"/><path fill="#E49B29" transform="matrix(0.670139 0 0 0.669643 0 1.52588e-05)" d="M811.699 346.763C832.443 346.935 844.121 349.421 863.022 358.466C865.551 362.25 864.532 372.173 866.778 377.499C871.247 388.102 878.096 398.057 884.331 407.704C883.287 409.008 882.276 410.363 881.056 411.496C875.633 416.707 873.191 420.137 870.084 426.851C847.172 416.85 838.617 412.989 813.141 416.609C811.363 409.852 809.793 401.09 808.349 394.117C823.608 385.11 823.671 377.952 818.778 362.3C827.358 362.955 835.478 364.039 844.002 365.138C834.194 359.554 828.588 359.423 817.591 359.344C815.064 354.761 813.699 351.55 811.699 346.763Z"/><path fill="#F6B945" transform="matrix(0.670139 0 0 0.669643 0 1.52588e-05)" d="M863.022 358.466C865.551 362.25 864.532 372.173 866.778 377.499C871.247 388.102 878.096 398.057 884.331 407.704C883.287 409.008 882.276 410.363 881.056 411.496C873.36 403.354 859.75 386.151 857.59 374.92C856.337 368.406 859.247 363.427 863.022 358.466Z"/><path fill="#E49B29" transform="matrix(0.670139 0 0 0.669643 0 1.52588e-05)" d="M873.253 432.752C884.736 435.554 890.599 436.733 902.499 437.139C909.116 444.529 930.165 479.825 931.844 490.582C933.288 499.826 931.951 515.552 931.42 525.257C913.559 517.736 904.14 506.544 882.313 509.022C880.05 498.78 878.639 489.306 876.998 479.001C874.327 462.233 871.629 449.707 873.253 432.752Z"/><path fill="#E49B29" transform="matrix(0.670139 0 0 0.669643 0 1.52588e-05)" d="M820.656 419.795C839.008 417.339 853.075 424.143 869.304 431.203C867.647 450.396 869.632 460.64 872.875 479.665C874.608 489.828 876.016 499.659 878.282 509.841C873.027 511.987 869.034 513.616 864.243 516.703C860.135 519.411 857.794 521.766 854.253 525.107C848.515 510.053 845.095 493.37 838.543 477.978C829.783 457.399 819.201 443.006 813.885 420.985L820.656 419.795Z"/><path fill="#E49B29" transform="matrix(0.670139 0 0 0.669643 0 1.52588e-05)" d="M254.511 195.57C271.325 196.669 287.128 197.128 303.945 196.059C329.776 194.417 354.542 189.796 379.785 184.542C385.275 183.399 390.781 181.352 396.436 181.353C398.665 181.353 399.182 182.478 400.521 184.004C403.5 188.123 405.711 190.446 409.239 194.084L413.121 197.935C383.78 212.762 324.744 226.421 291.384 220.579C278.132 218.259 262.052 207.282 254.511 195.57Z"/><path fill="#D3791D" transform="matrix(0.670139 0 0 0.669643 0 1.52588e-05)" d="M400.521 184.004C403.5 188.123 405.711 190.446 409.239 194.084C404.9 199.105 361.065 209.981 352.989 211.286C329.394 215.099 294.766 220.122 274.794 204.24C283.541 204.775 294.735 205.948 303.397 205.109C329.862 202.544 356.483 196.855 382.393 191.008C389.624 189.377 394.656 188.591 400.521 184.004Z"/><path fill="#336F84" transform="matrix(0.670139 0 0 0.669643 0 1.52588e-05)" d="M326.25 704.451C344.223 703.303 369.074 712.906 378.592 728.856C368.695 725.729 362.718 721.163 351.26 719.088C320.898 713.588 306.237 732.235 281.997 745.004C274.195 749.114 267.671 750.902 259.14 752.314C237.462 754.367 215.979 748.497 203.23 729.644C268.788 754.404 276.057 709.355 326.25 704.451Z"/><path fill="#336F84" transform="matrix(0.670139 0 0 0.669643 0 1.52588e-05)" d="M751.855 704.966C786.734 699.594 806.322 729.463 836.534 736.399C844.977 738.337 860.334 737.754 868.774 735.606C872.558 734.644 879.318 731.952 882.911 731.988L883.29 732.854C881.369 735.838 877.511 738.447 874.867 740.86C864.704 750.137 851.717 752.877 838.291 753.247C798.932 753.501 789.773 725.506 754.772 718.817C737.861 715.585 723.12 723.825 707.97 729.867C718.821 715.824 734.4 707.419 751.855 704.966Z"/><path fill="#E49B29" transform="matrix(0.670139 0 0 0.669643 0 1.52588e-05)" d="M273.493 280.816C285.56 278.917 296.519 282.79 306.093 289.87C310.079 292.817 325.884 305.107 320.173 310.462C311.838 318.278 286.358 334.492 275.816 336.249L274.928 335.724C264.704 315.662 260.387 312.247 244.575 297.322C252.043 291.359 264.395 283.223 273.493 280.816Z"/><path fill="#F6B945" transform="matrix(0.670139 0 0 0.669643 0 1.52588e-05)" d="M244.575 297.322C252.043 291.359 264.395 283.223 273.493 280.816C279.42 283.742 270.542 304.326 268.658 309.141C271.439 314.227 280.668 330.948 274.928 335.724C264.704 315.662 260.387 312.247 244.575 297.322Z"/><path fill="#F6B945" transform="matrix(0.670139 0 0 0.669643 0 1.52588e-05)" d="M515.46 312.024C516.793 313.345 518.352 326.601 519.114 329.631C522.984 345.022 531.758 361.154 546.671 368.211C548.785 369.502 553.834 368.942 554.43 365.94C555.854 358.761 545.875 352.468 543.282 346.084C540.925 340.283 539.877 338.049 541.507 331.957C543.96 322.789 559.4 317.478 563.76 326.863C563.982 329.302 563.091 330.992 561.656 332.62C551.524 344.115 559.191 345.771 566.138 355.244C566.768 356.103 567.978 360.215 568.446 361.805C571.288 370.37 578.829 377.196 575.909 386.633C572.104 399.153 557.401 399.763 546.938 396.511C534.087 392.518 521.936 376.992 515.993 365.191C521.368 368.173 526.67 371.323 532.387 373.558C530.167 367.305 522.744 357.444 519.158 350.954C510.815 335.851 511.059 327.948 515.46 312.024Z"/><path fill="#E49B29" transform="matrix(0.670139 0 0 0.669643 0 1.52588e-05)" d="M531.898 378.238C532.411 378.341 539.083 380.111 539.393 380.269C542.529 381.872 564.689 385.046 566.022 386.465C565.761 388.524 565.602 388.136 564.159 390.06C551.258 398.446 539.739 388.176 531.898 378.238Z"/><path fill="#E49B29" transform="matrix(0.670139 0 0 0.669643 0 1.52588e-05)" d="M310.611 234.585C337.435 232.145 357.533 228.384 383.364 220.132C390.424 217.876 407.455 210.843 413.38 209.845C414.988 210.552 415.67 212.088 416.628 213.62C420.15 217.995 422.909 220.151 427.484 223.435C429.306 224.172 429.911 224.255 431.201 225.645C429.915 228.06 420.626 232.358 417.78 233.763C386.132 249.388 338.54 265.268 310.611 234.585Z"/><path fill="#D3791D" transform="matrix(0.670139 0 0 0.669643 0 1.52588e-05)" d="M416.628 213.62C420.15 217.995 422.909 220.151 427.484 223.435C425.208 225.467 419.198 227.914 416.227 229.106C385.534 241.42 363.874 253.518 330.914 240.325C360.646 237.127 387.144 227.939 414.502 216.266C415.135 215.995 416.25 214.252 416.628 213.62Z"/><path fill="#B1511C" transform="matrix(0.670139 0 0 0.669643 0 1.52588e-05)" d="M485.964 616.652C475.156 606.449 459.016 595.79 446.375 587.965C405.253 562.512 365.324 548.508 316.845 545.507C311.312 545.142 305.767 544.98 300.221 545.022C295.657 545.089 274.38 546.525 271.586 544.809L272.047 543.788C275.624 541.528 284.198 540.307 288.66 539.721C313.138 536.511 337.936 536.592 362.393 539.962C416.748 547.629 454.15 570.012 486.841 613.498L485.964 616.652Z"/><path fill="#F6B945" transform="matrix(0.670139 0 0 0.669643 0 1.52588e-05)" d="M951.42 622.836C966.471 620.281 982.719 631.746 997.224 633.604C1005.97 634.723 1012.23 633.804 1020.65 632.121C1004.41 654.23 984.435 646.994 963.145 639.671C950.573 635.348 934.492 637.583 930.54 652.755C930.915 655.462 931.66 657.059 933.232 659.257C935.55 660.492 937.3 660.103 939.099 657.858C945.053 650.424 953.599 645.207 957.604 658.299C960.29 667.081 951.307 677.801 941.747 679.129C917.446 682.502 905.812 656.488 921.082 638.615C929.554 628.696 938.775 624.217 951.42 622.836Z"/><path fill="#F6B945" transform="matrix(0.670139 0 0 0.669643 0 1.52588e-05)" d="M126.119 621.74C137.796 620.795 149.382 624.429 158.428 631.873C170.137 641.498 176.523 657.397 165.532 670.304C157.416 679.834 143.28 681.872 133.626 673.298C129.895 669.817 127.437 666.027 127.408 660.862C127.301 641.927 138.323 647.875 146.622 658.036C147.738 659.403 148.734 659.139 150.218 659.017C162.108 647.416 144.895 636.094 133.476 636.742C102.84 638.483 90.3545 660.428 64.9188 632.529C93.3175 638.72 101.747 624.354 126.119 621.74Z"/><path fill="#E49B29" transform="matrix(0.670139 0 0 0.669643 0 1.52588e-05)" d="M934.118 534.459C951.168 540.658 957.903 542.61 976.317 540.288C975.064 547.662 973.44 554.908 971.913 562.17C968.829 576.84 959.976 580.995 947.778 588.409C941.138 592.652 935.909 595.676 928.764 598.878C924.543 598.479 920.1 597.72 915.888 597.078C926.21 571.093 930.005 561.99 934.118 534.459Z"/><path fill="#B1511C" transform="matrix(0.670139 0 0 0.669643 0 1.52588e-05)" d="M495.588 404.738C498.525 406.949 500.937 412.756 502.403 416.119C525.382 468.85 472.437 468.092 466.687 484.318C463.047 494.587 470.024 507.896 474.173 517.111L469.721 514.156C457.425 505.675 447.336 495.869 446.955 479.787C446.355 454.464 475.159 458.587 488.373 443.729C499.53 431.184 495.955 419.769 495.588 404.738Z"/><path fill="#B1511C" transform="matrix(0.670139 0 0 0.669643 0 1.52588e-05)" d="M779.14 564.164C789.008 563.716 869.859 597.072 884.953 603.65C895.25 608.137 912.726 616.626 923.854 621.046C924.909 621.465 924.912 621.392 925.813 622.242C924.884 623.7 923.893 623.765 922.083 624.576C907.987 630.121 890.005 629.728 876.23 623.432C867.675 619.521 863.444 611.155 855.703 606.602C849.224 602.792 839.41 603.394 832.639 599.628C825.544 595.855 822.789 589.593 816.373 585.073C808.696 579.663 784.254 570.663 779.14 564.164Z"/><path fill="#F6B945" transform="matrix(0.670139 0 0 0.669643 0 1.52588e-05)" d="M82.7073 389.366C79.2199 313.848 160.481 319.24 169.458 385.026C171.847 402.535 168.736 416.307 157.689 430.422C159.163 425.426 160.493 420.771 161.14 415.572C163.224 395.983 157.904 378.05 146.277 362.394C132.432 343.751 105.401 339.617 94.9339 363.637C91.7497 370.944 90.9611 377.384 90.0492 385.295C86.9549 385.383 86.1941 386.379 84.1979 388.601L83.2879 389.591L82.7073 389.366Z"/><path fill="#336F84" transform="matrix(0.670139 0 0 0.669643 0 1.52588e-05)" d="M354.219 740.386C376.76 737.61 402.201 747.122 415.296 766.088C405.685 761.255 397.534 757.551 387.032 755.19C358.57 748.789 346.517 758.585 324.225 772.601C313.393 779.305 303.603 783.034 290.703 782.881C280.204 782.756 269.062 780.579 261.388 772.868C267.708 773.642 275.885 774.822 282.136 774.353C314.158 771.951 322.037 745.319 354.219 740.386Z"/><path fill="#336F84" transform="matrix(0.670139 0 0 0.669643 0 1.52588e-05)" d="M719.751 740.397C759.643 737.286 765.802 763.626 793.965 772.38C799.7 774.166 805.708 774.914 811.706 774.588C815.171 774.423 823.451 773.019 825.785 773.717L826.013 774.518C824.396 776.628 820.86 777.93 818.471 779.041C805.318 785.158 789.49 784.387 776.064 779.011C762.012 772.873 751.536 762.941 738.227 757.361C714.691 747.493 694.838 757.617 674.031 766.007C685.54 750.621 701.113 743.11 719.751 740.397Z"/><path fill="#E49B29" transform="matrix(0.670139 0 0 0.669643 0 1.52588e-05)" d="M202.533 670.771C203.086 671.052 203.707 671.27 203.433 672.36C201.659 678.968 199.368 686.224 202.915 692.775C216.361 717.609 251.985 707.589 267.747 691.005C277.098 681.167 280.601 670.614 295.933 676.838C299.184 678.158 306.895 681.328 308.393 684.523L307.98 685.449C305.74 686.663 303.086 686.673 300.479 686.941C285.272 689.833 273.289 700.399 260.202 707.981C247.726 715.209 231.833 721.396 217.195 718.856C208.824 717.431 201.37 712.718 196.492 705.768C187.725 693.289 189.78 679.388 202.533 670.771Z"/><path fill="#D3791D" transform="matrix(0.670139 0 0 0.669643 0 1.52588e-05)" d="M883.219 671.859C887.433 673.623 889.942 676.006 892.377 679.859C900.441 692.639 892.308 708.975 880.314 715.929C868.83 722.588 854.344 720.198 842.49 715.82C822.386 708.396 808.856 693.027 787.737 687.623L777.74 686.19C783.644 681.143 796.185 673.323 804.716 676.634C810.025 678.695 816.127 687.548 820.388 691.967C823.006 694.653 825.904 697.05 829.033 699.118C845.096 709.755 869.281 714.762 882.586 696.016C887.637 688.9 884.985 679.775 883.219 671.859Z"/><path fill="#336F84" transform="matrix(0.670139 0 0 0.669643 0 1.52588e-05)" d="M388.247 770.214C399.311 769.578 407.678 770.262 417.529 775.909C432.422 784.448 443.12 799.462 447.66 815.853C427.994 799.901 422.253 777.936 389.951 785.496C373.721 790.259 360.325 802.646 342.79 803.302C332.217 803.697 324.729 801.57 316.88 794.529C322.86 795.092 327.741 795.608 333.785 795.031C357.764 792.742 364.474 773.218 388.247 770.214Z"/><path fill="#F6B945" transform="matrix(0.670139 0 0 0.669643 0 1.52588e-05)" d="M1025.27 553.713C1026.65 553.586 1029.78 554.012 1031.29 554.172C1021.08 575.937 1006.36 592.012 988.335 607.539C983.213 606.439 980.154 605.683 975.13 604.055C979.937 597.63 985.838 592.08 993.088 588.54C1004.69 582.875 1008.78 578.127 1009.1 565.108L1004.79 569.422C998.074 577.235 992.354 578.523 985.445 584.65C979.376 590.032 973.45 597.174 967.175 602.945C963.645 602.796 959.769 602.423 956.216 602.158C962.981 587.223 968.887 579.796 982.537 570.886C997.005 561.442 1007.41 555.01 1025.27 553.713Z"/><path fill="#336F84" transform="matrix(0.670139 0 0 0.669643 0 1.52588e-05)" d="M691.067 770.23C720.975 768.261 724.118 788.384 750.107 794.728C757.163 796.45 765.806 795.362 773.174 795.195C748.593 813.214 729.323 799.467 706.683 788.367C691.085 781.63 676.95 782.678 663.763 793.837C655.535 800.799 649.61 810.069 641.271 816.695C648.082 793.551 665.976 772.778 691.067 770.23Z"/><path fill="#E49B29" transform="matrix(0.670139 0 0 0.669643 0 1.52588e-05)" d="M1034.56 518.743C1036.99 518.567 1043.81 517.77 1044.91 520.174C1044.29 526.269 1038.04 541.018 1035.43 546.807C1011.44 546.681 1000.22 552.506 980.704 565.516L973.733 570.221C976.491 560.024 978.5 549.497 980.513 539.126C987.56 536.904 993.112 535.109 999.895 532.255C1010.95 527.607 1022.82 520.738 1034.56 518.743Z"/><path fill="#E49B29" transform="matrix(0.670139 0 0 0.669643 0 1.52588e-05)" d="M374.486 259.85C391.591 255.457 407.862 252.05 423.275 243.207C426.691 241.247 431.218 238.707 434.814 237.34C436.763 237.779 436.312 237.88 437.96 239.723C442.679 245.459 447.408 247.194 454.179 250.381C455.759 250.975 458.161 252.263 459.743 253.048C439.056 272.935 396.769 279.697 374.486 259.85Z"/><path fill="#D3791D" transform="matrix(0.670139 0 0 0.669643 0 1.52588e-05)" d="M437.96 239.723C442.679 245.459 447.408 247.194 454.179 250.381C450.588 253.403 440.531 259.012 436.098 260.847C420.018 267.506 409.398 268.246 393.528 262.166C407.564 258.593 422.93 254.46 434.678 245.333C436.97 243.553 437.288 242.531 437.96 239.723Z"/><path fill="#D3791D" transform="matrix(0.670139 0 0 0.669643 0 1.52588e-05)" d="M255.735 57.8333C259.448 58.1154 266.401 59.5989 270.257 60.3029C279.142 61.9376 288.035 63.5241 296.937 65.0624C316.295 68.4153 343.409 72.3641 363.273 76.2513C365.96 76.777 368.35 85.0096 369.092 87.9728C353.928 89.7141 300.046 82.0375 283.539 77.4255C273.464 74.6107 261.056 67.8179 255.735 57.8333Z"/><path fill="#B1511C" transform="matrix(0.670139 0 0 0.669643 0 1.52588e-05)" d="M465.785 388.397C468.716 394.606 467.359 408.837 465.313 415.156C459.799 432.187 445.982 436.174 431.454 442.899C422.442 447.071 416.672 457.097 415.68 466.747C415.395 469.527 415.684 473.331 414.883 475.828L414.061 475.709L412.414 473.346C411.392 471.32 410.329 469.198 409.559 467.066C407.156 460.59 406.668 453.559 408.153 446.813C413.492 422.828 438.114 422.801 453.135 409.595C458.919 404.51 462.546 395.405 465.785 388.397Z"/><path fill="#E49B29" transform="matrix(0.670139 0 0 0.669643 0 1.52588e-05)" d="M515.89 190.419C517.262 190.308 518.638 190.232 520.014 190.19C527.695 189.968 534.79 192.255 540.197 197.688C563.907 221.512 546.363 264.673 512.373 264.148C499.839 263.954 490.163 260.657 481.079 251.813C474.915 245.813 474.061 240.537 474.07 232.284C474.969 232.857 476.119 233.444 476.732 234.223C483.577 250.582 504.938 254.457 520.077 249.058C528.304 246.182 535.004 240.079 538.632 232.157C543.354 221.706 541.495 210.353 534.089 201.7C529.012 195.768 522.826 193.421 515.89 190.419Z"/><path fill="#E49B29" transform="matrix(0.670139 0 0 0.669643 0 1.52588e-05)" d="M108.692 483.114C113.884 483.828 121.094 496.977 125.278 501.277C127.289 501.574 130.931 500.363 133.099 499.789C136.147 504.865 138.653 509.423 141.417 514.664C139.389 516.256 137.108 518.288 135.108 519.977C138.004 519.527 140.961 518.983 143.856 518.484C152.4 530.046 160.149 540.39 170.326 550.645C178.155 558.534 185.954 564.742 194.003 572.176C191.147 574.229 188.111 576.537 185.043 578.199C154.246 558.585 122.178 516.726 108.692 483.114Z"/><path fill="#F6B945" transform="matrix(0.670139 0 0 0.669643 0 1.52588e-05)" d="M118.446 356.198C140.876 354.708 148.981 382.535 152.928 400.03C156.849 417.409 140.572 431.567 125.532 419.286C118.108 413.223 115.075 405.666 114.145 396.242C114.738 392.072 117.029 383.905 122.908 386.916C125.369 390.351 125.248 398.491 125.678 402.936C127.433 421.091 145.948 409.956 141.662 395.719C138.162 384.094 131.804 368.715 118.081 366.645C114.942 366.172 108.79 367.943 106.517 366.462C107.781 361.638 114.036 357.828 118.446 356.198Z"/><path fill="#336F84" transform="matrix(0.670139 0 0 0.669643 0 1.52588e-05)" d="M529.984 210.011C530.748 212.026 531.253 214.129 531.49 216.27C534.66 245.631 494.333 247.339 492.315 221.305C491.23 207.321 503.503 200.23 515.966 200.214C523.606 200.746 526.314 203.693 529.984 210.011Z"/><path fill="#82B2BE" transform="matrix(0.670139 0 0 0.669643 0 1.52588e-05)" d="M515.966 200.214C523.606 200.746 526.314 203.693 529.984 210.011C529.339 211.614 528.494 213.638 527.311 214.892C525.524 216.764 523.028 217.793 520.44 217.725C511.024 217.555 506.721 207.403 515.966 200.214Z"/><path fill="#E49B29" transform="matrix(0.670139 0 0 0.669643 0 1.52588e-05)" d="M784.536 534.411C815.341 539.815 820.192 557.929 853.01 537.551C855.038 547.238 856.374 553.646 856.926 563.447C857.221 566.276 856.874 569.123 856.647 571.966C853.039 570.921 848.709 569.339 845.192 567.981C826.599 560.801 806.167 555.895 787.797 548.451C786.187 543.476 785.508 539.53 784.536 534.411Z"/><path fill="#B1511C" transform="matrix(0.670139 0 0 0.669643 0 1.52588e-05)" d="M435.326 357.317C437.453 358.421 439.115 363.035 439.77 365.309C442.322 374.158 441.604 385.694 436.211 393.363C428.952 403.686 415.207 404.022 405.605 411.314C399.193 416.183 396.379 420.878 392.646 427.75C392.033 429.005 391.879 429.143 391.044 430.205L390.493 429.596C389.205 410.321 391.762 389.706 413.92 384.803C431.142 380.992 432.893 372.344 435.326 357.317Z"/><path fill="#336F84" transform="matrix(0.670139 0 0 0.669643 0 1.52588e-05)" d="M710.605 810.111C715.958 809.658 728.693 809.829 731.176 815.843C729.994 816.704 727.224 816.463 725.328 816.661C721.672 817.03 718.101 817.995 714.758 819.519C708.728 822.231 702.924 827.086 697.337 830.805C680.631 841.929 664.546 846.372 644.766 847.554C640.986 847.602 624.882 847.879 622.276 846.457L622.284 845.464C625.737 842.973 649.058 840.788 658.14 837.504C664.331 835.294 670.223 832.322 675.68 828.656C688.088 820.358 695.057 812.181 710.605 810.111Z"/><path fill="#336F84" transform="matrix(0.670139 0 0 0.669643 0 1.52588e-05)" d="M398.836 799.435C400.14 799.343 401.446 799.281 402.752 799.25C430.879 798.57 433.227 812.311 456.557 821.794C461.389 823.759 474.334 824.504 475.377 825.492L475.103 826.367C472.414 828.865 466.581 830.948 463.085 832.144C434.851 838.976 423.043 816.999 401.155 806.482C396.594 804.291 391.18 803.857 386.178 803.402C390.927 801.213 393.715 800.285 398.836 799.435Z"/><path fill="#336F84" transform="matrix(0.670139 0 0 0.669643 0 1.52588e-05)" d="M682.069 799.491C686.536 799.376 697.833 799.884 700.61 803.447C699.399 804.466 691.104 804.945 686.005 807.865C666.046 819.294 659.282 833.512 633.759 833.701C625.306 833.489 619.098 830.304 612.4 825.52C619.194 824.664 630.331 823.882 636.18 821.109C657.415 811.041 656.613 801.706 682.069 799.491Z"/><path fill="#336F84" transform="matrix(0.670139 0 0 0.669643 0 1.52588e-05)" d="M370.721 809.482C398.704 807.997 405.536 828.103 431.62 837.214C440.796 840.419 462.748 842.516 466.494 844.94L466.571 845.808C463.751 846.693 458.524 846.727 455.38 846.882C435.766 847.643 415.422 844.072 398.459 833.963C380.629 823.338 379.016 817.039 357.512 815.21C362.96 811.56 364.156 810.926 370.721 809.482Z"/><path fill="#E49B29" transform="matrix(0.670139 0 0 0.669643 0 1.52588e-05)" d="M289.931 86.414C292.474 86.5815 295.38 87.0152 297.899 87.4728C321.955 91.8419 345.726 93.2218 370.1 94.8365C370.958 96.8221 371.817 99.6582 372.524 101.766C358.121 101.258 343.531 101.66 329.123 100.934C311.492 100.044 300.286 103.036 289.931 86.414Z"/><defs><linearGradient id="gradient_2" gradientUnits="userSpaceOnUse" x1="106.40753" y1="424.93417" x2="137.14311" y2="399.49097"><stop offset="0" stop-color="#D98626"/><stop offset="1" stop-color="#F8BB45"/></linearGradient></defs><path fill="url(#gradient_2)" transform="matrix(0.670139 0 0 0.669643 0 1.52588e-05)" d="M98.0847 417.12C110.193 406.529 95.4302 389.911 105.537 378.819C107.554 376.605 115.319 372.928 118.087 375.077C117.496 377.221 113.531 379.528 112.124 381.43C99.5791 398.382 113.878 431.228 134.441 435.081C139.16 435.965 142.823 436.518 147.376 436.918L147.369 437.581C142.932 440.548 134.843 441.698 129.476 440.632C117.864 438.325 111.922 429.196 104.202 423.292C102.429 421.193 99.9895 420.277 98.0847 417.12Z"/><path fill="#D3791D" transform="matrix(0.670139 0 0 0.669643 0 1.52588e-05)" d="M194.542 476.354C196.926 478.482 201.495 485.802 203.402 488.753C191.245 495.387 178.833 501.424 165.424 504.953C161.626 502.103 158.452 496.209 156.024 492.036C172.994 486.891 178.807 484.209 194.542 476.354Z"/><path fill="#E49B29" transform="matrix(0.670139 0 0 0.669643 0 1.52588e-05)" d="M878.289 653.187C895.139 651.733 907.018 661.995 912.363 677.442C901.945 669.387 897.464 666.046 884.288 665.614C871.574 667.046 867.225 675.885 865.101 687.214C856.422 672.532 861.241 657.255 878.289 653.187Z"/><path fill="#E49B29" transform="matrix(0.670139 0 0 0.669643 0 1.52588e-05)" d="M307.669 437.279C311.736 434.044 315.105 431.211 319.635 428.643C329.22 444.305 337.048 454.991 351.29 467.094C354.644 469.944 358.173 472.253 361.436 474.906C357.61 475.705 354.853 476.286 350.983 476.649C346.933 474.933 338.379 469.751 336.334 465.875L336.464 464.771C337.154 464.268 337.689 463.839 338.439 463.424C339.638 462.948 339.226 463.135 340.223 462.196L340.053 461.625L338.52 462.043C336.209 462.933 334.97 463.751 332.772 462.682C329.188 460.938 325.266 456.403 322.552 453.33L327.424 448.571L319.596 451.282C315.471 446.922 310.984 442.286 307.669 437.279Z"/><path fill="#E49B29" transform="matrix(0.670139 0 0 0.669643 0 1.52588e-05)" d="M199.559 652.006C203.868 651.431 208.252 652.064 212.222 653.835C217.89 656.346 222.304 661.038 224.465 666.848C226.994 673.788 225.526 679.802 222.564 686.229C218.88 677.171 217.619 672.3 209.274 666.931C193.63 660.066 185.314 667.936 173.002 676.225C174.213 673.38 175.647 670.635 177.29 668.016C183.004 659.078 189.272 654.351 199.559 652.006Z"/><path fill="#E49B29" transform="matrix(0.670139 0 0 0.669643 0 1.52588e-05)" d="M223.014 483.697C225.176 484.499 235.278 496.725 238.571 499.763C247.749 508.227 257.384 514.192 267.098 521.751C264.885 523.778 261.61 526.263 259.214 528.196C244.625 521.194 223.922 501.397 214.392 488.457L223.014 483.697Z"/><path fill="#B1511C" transform="matrix(0.670139 0 0 0.669643 0 1.52588e-05)" d="M799.052 619.687L799.681 620.452C801.233 628.004 796.956 641.095 794.352 648.493C786.872 669.747 768.263 686.316 747.825 695.44C747.631 695.235 747.765 695.422 747.425 694.542C749.081 691.961 756.222 685.237 758.799 682.659C763.729 677.791 768.404 672.67 772.805 667.319C779.722 658.774 786.134 649.408 790.701 639.361C793.413 633.397 795.691 625.941 798.728 620.282L799.052 619.687Z"/><path fill="#E49B29" transform="matrix(0.670139 0 0 0.669643 0 1.52588e-05)" d="M187.733 428.879C188.984 429.257 189.545 429.49 190.164 430.787C198.837 448.941 208.715 463.769 220.613 479.973L215.168 483.629C214.482 484.187 213.45 484.639 212.633 485.059C206.564 482.943 185.582 442.393 184.474 433.691C184.258 431.994 186.671 429.926 187.733 428.879Z"/><path fill="#E49B29" transform="matrix(0.670139 0 0 0.669643 0 1.52588e-05)" d="M769.859 508.804C773.208 512.099 776.651 522.823 777.935 527.475C765.165 529.958 761.804 531.069 750.374 536.896C747.35 536.483 743.441 535.492 740.383 534.803C736.941 534.087 733.447 533.203 730.022 532.377C749.864 525.627 755.01 524.082 769.859 508.804Z"/><path fill="#E49B29" transform="matrix(0.670139 0 0 0.669643 0 1.52588e-05)" d="M803.862 394.6C804.341 395.141 808.7 415.145 809.285 417.46C799.376 421.066 795.749 422.089 786.652 427.724C787.219 426.322 788.368 424.76 789.078 423.355C792.747 416.097 789.705 409.694 787.258 402.775C786.503 400.642 785.834 398.269 785.159 396.09C791.267 396.149 797.799 395.321 803.862 394.6Z"/><path fill="#E49B29" transform="matrix(0.670139 0 0 0.669643 0 1.52588e-05)" d="M324.528 316.604L325.308 316.834C327.046 328.473 288.793 345.006 279.338 349.083L276.258 340.134C297.006 332.827 305.337 327.792 324.528 316.604Z"/><path fill="#E49B29" transform="matrix(0.670139 0 0 0.669643 0 1.52588e-05)" d="M187.993 503.059C194.397 500.127 200.603 496.782 206.574 493.044C209.965 497.309 213.793 502.368 217.457 506.272C212.263 509.377 206.95 512.277 201.53 514.966C198.757 512.42 191.751 505.736 189.063 503.907L187.993 503.059Z"/><path fill="#D3791D" transform="matrix(0.670139 0 0 0.669643 0 1.52588e-05)" d="M169.257 510.21C174.698 507.751 182.305 505.135 187.993 503.059L189.063 503.907C188.502 508.44 193.849 514.097 196.594 517.552C191.501 519.809 186.189 521.985 181.047 524.163C176.648 519.334 173.294 515.343 169.257 510.21Z"/><path fill="#E49B29" transform="matrix(0.670139 0 0 0.669643 0 1.52588e-05)" d="M611.311 295.913L611.504 296.217C611.496 297.387 611.609 297.266 610.872 298.294C600.211 313.148 583.542 313.617 568.941 304.439C567.013 303.088 565.161 301.063 563.472 299.371C583.805 303.538 592.263 303.361 611.311 295.913Z"/><path fill="#F6B945" transform="matrix(0.670139 0 0 0.669643 0 1.52588e-05)" d="M321.35 335.131L322.053 335.371L322.263 336.327C317.363 346.409 292.123 357.107 281.708 361.546C280.98 358.952 280.379 355.853 279.797 353.186C295.837 347.714 306.283 342.504 321.35 335.131Z"/><path fill="#E49B29" transform="matrix(0.670139 0 0 0.669643 0 1.52588e-05)" d="M205.824 423.823C206.581 423.934 207.599 424.323 208.066 424.961C214.929 434.337 220.427 444.303 227.647 453.49L223.583 455.575L218.147 458.428C213.553 451.155 206.454 438.426 204.123 429.995C203.4 427.38 204.379 425.906 205.824 423.823Z"/><path fill="#E49B29" transform="matrix(0.670139 0 0 0.669643 0 1.52588e-05)" d="M885.529 411.547C888.425 412.854 898.078 429.409 900.363 433.106C897.419 433.064 893.857 432.644 890.869 432.367C884.863 431.584 879.862 430.336 874.074 428.717C877.546 421.328 880.01 417.472 885.529 411.547Z"/><path fill="#E49B29" transform="matrix(0.670139 0 0 0.669643 0 1.52588e-05)" d="M608.729 281.208L609.301 281.778C610.55 288.102 600.444 294.302 595.284 295.924C586.299 298.749 578.452 297.485 570.182 293.342C568.166 292.023 566.088 290.275 564.183 288.762C584.332 291.629 590.646 290.468 608.729 281.208Z"/><path fill="#E49B29" transform="matrix(0.670139 0 0 0.669643 0 1.52588e-05)" d="M275.456 436.908C277.298 438.281 281.992 445.451 283.583 447.739C277.735 450.897 272.217 453.948 265.785 455.816C262.821 453.432 258.811 449.263 256 446.507C262.33 443.238 269.04 440.059 275.456 436.908Z"/><path fill="#E49B29" transform="matrix(0.670139 0 0 0.669643 0 1.52588e-05)" d="M213.642 537.104C219.137 536.595 227.067 544.041 231.535 547.548C227.389 550.266 224.374 552.152 219.986 554.524C215.235 552.535 206.244 546.17 201.552 542.996C205.477 540.947 209.639 539.022 213.642 537.104Z"/><path fill="#E49B29" transform="matrix(0.670139 0 0 0.669643 0 1.52588e-05)" d="M161.423 511.763L162.569 511.774C165.333 513.088 172.675 523.91 174.844 526.891C171.254 528.682 167.834 530.078 164.141 531.609C159.718 531.522 153.171 520.113 150.793 516.457C154.317 514.849 157.861 513.285 161.423 511.763Z"/><path fill="#E49B29" transform="matrix(0.670139 0 0 0.669643 0 1.52588e-05)" d="M192.279 546.653C195.276 546.558 208.526 557.046 211.566 559.295C207.99 561.627 205.415 563.047 201.614 565.015C196.431 563.566 186.548 554.89 182.177 551.228L192.279 546.653Z"/><path fill="#E49B29" transform="matrix(0.670139 0 0 0.669643 0 1.52588e-05)" d="M221.987 418.147C226.33 418.981 240.456 440.722 242.36 444.802C241.535 446.452 240.743 446.59 239.052 447.72L235.074 449.762C230.301 442.857 223.373 430.864 220.737 422.778C220.055 420.686 220.986 419.602 221.987 418.147Z"/><path fill="#E49B29" transform="matrix(0.670139 0 0 0.669643 0 1.52588e-05)" d="M199.55 521.935C202.432 523.325 209.016 529.998 211.824 532.611C207.016 535.21 202.4 537.154 197.399 539.33C194.427 538.235 187.19 530.981 184.622 528.534C189.749 526.033 194.269 524.109 199.55 521.935Z"/><path fill="#E49B29" transform="matrix(0.670139 0 0 0.669643 0 1.52588e-05)" d="M271.245 399.106C274.723 400.181 286.573 418.2 289.693 422.433L284.327 425.991C282.391 426.875 282.251 427.353 280.554 427.062C276.771 421.955 269.418 410.008 268.711 403.597C268.498 401.67 269.948 400.431 271.245 399.106Z"/><path fill="#F6B945" transform="matrix(0.670139 0 0 0.669643 0 1.52588e-05)" d="M610.136 310.581C610.349 311.37 610.403 312.024 609.879 312.755C600.019 326.517 585.692 325.014 572.669 316.272C570.759 314.866 569.49 313.569 567.797 311.936C586.544 317.027 592.501 316.802 610.136 310.581Z"/><path fill="#E49B29" transform="matrix(0.670139 0 0 0.669643 0 1.52588e-05)" d="M220.291 510.627C223.038 511.569 228.848 518.57 231.093 521.03C227.16 523.675 222.354 526.316 218.208 528.722C213.724 525.55 210.019 522.242 205.877 518.656C210.636 516.203 215.598 513.283 220.291 510.627Z"/><path fill="#E49B29" transform="matrix(0.670139 0 0 0.669643 0 1.52588e-05)" d="M286 452.823C288.049 453.912 293.593 461 295.392 463.166C292.217 464.816 283.943 469.3 280.837 470.105C278.548 468.464 272.363 462.63 270.018 460.507L286 452.823Z"/><path fill="#D3791D" transform="matrix(0.670139 0 0 0.669643 0 1.52588e-05)" d="M150.254 493.266L151.858 493.222C154.082 494.482 158.13 503.912 159.72 507.006C155.897 508.568 151.938 509.959 148.053 511.373C145.605 510.098 140.487 500.332 138.893 497.526L150.254 493.266Z"/><path fill="#E49B29" transform="matrix(0.670139 0 0 0.669643 0 1.52588e-05)" d="M238.433 411.891C240.981 412.569 258.384 436.304 258.545 438.48L256.633 439.829C256.363 439.982 256.09 440.131 255.816 440.277C253.925 441.284 253.363 441.609 251.557 441.065C246.98 436.714 239.335 422.577 237.366 416.172C236.734 414.116 237.5 413.474 238.433 411.891Z"/><path fill="#E49B29" transform="matrix(0.670139 0 0 0.669643 0 1.52588e-05)" d="M244.286 472.994C246.266 474.505 253.437 482.272 255.535 484.468L243.612 491.288C239.902 487.902 234.942 483.319 232.294 479.147C236.404 476.92 240.054 475.016 244.286 472.994Z"/><path fill="#E49B29" transform="matrix(0.670139 0 0 0.669643 0 1.52588e-05)" d="M293.553 426.825C296.656 426.758 301.268 434.997 303.032 437.646L290.806 443.862C289.967 444.278 289.958 444.135 288.921 444.195C285.867 441.827 283.731 437.362 281.903 433.972C285.753 431.316 289.523 429.168 293.553 426.825Z"/><path fill="#E49B29" transform="matrix(0.670139 0 0 0.669643 0 1.52588e-05)" d="M263.956 462.871C266.841 465.302 271.325 470.873 273.871 473.895C270.118 476.139 265.572 478.527 261.696 480.673C257.53 476.694 254.826 474.001 251.088 469.625L263.956 462.871Z"/><path fill="#E49B29" transform="matrix(0.670139 0 0 0.669643 0 1.52588e-05)" d="M175.757 531.542C180.183 530.76 186.735 539.279 189.973 542.546C186.764 544.383 183.479 546.03 180.188 547.713L179.66 547.8C176.187 546.635 168.661 538.381 165.795 535.452L175.757 531.542Z"/><path fill="#E49B29" transform="matrix(0.670139 0 0 0.669643 0 1.52588e-05)" d="M234.467 525.175C237.147 526.378 245.408 533.311 248.173 535.531C244.846 538.18 242.476 539.764 238.876 542.067C233.07 538.964 229.01 536.45 223.96 532.246C227.102 529.736 231.043 527.364 234.467 525.175Z"/><path fill="#E49B29" transform="matrix(0.670139 0 0 0.669643 0 1.52588e-05)" d="M277.59 477.482C281.016 479.244 286.285 483.771 289.468 486.327C285.635 488.552 280.958 490.827 276.972 492.889C274.165 492.837 268 486.632 265.675 484.509C269.882 481.817 273.104 479.735 277.59 477.482Z"/><path fill="#E49B29" transform="matrix(0.670139 0 0 0.669643 0 1.52588e-05)" d="M287.447 392.993L288.815 393.103C291.962 395.109 297.799 405.197 299.393 408.824C298.682 411.254 298.056 417.668 296.995 418.996C293.263 414.598 284.36 401.799 283.565 396.384C284.194 394.831 285.977 393.965 287.447 392.993Z"/><path fill="#E49B29" transform="matrix(0.670139 0 0 0.669643 0 1.52588e-05)" d="M249.294 449.27C252.273 449.986 257.249 456.366 259.598 459.011C256.429 460.922 251.638 463.138 248.228 464.838C245.254 464.801 239.755 457.395 237.993 455.164C241.469 453.579 245.844 451.097 249.294 449.27Z"/><path fill="#E49B29" transform="matrix(0.670139 0 0 0.669643 0 1.52588e-05)" d="M304.207 443.139C306.956 443.201 312.3 451.113 314.14 453.466L303.423 458.961C302.757 459.276 302.722 459.16 301.899 459.185C298.515 456.514 296.012 452.672 293.611 449.123C297.104 447.059 300.636 445.064 304.207 443.139Z"/><path fill="#E49B29" transform="matrix(0.670139 0 0 0.669643 0 1.52588e-05)" d="M298.364 467.342C301.488 469.405 305.815 473.592 308.707 476.224C304.475 478.709 300.761 480.469 296.347 482.581C293.086 480.564 288.749 477.029 285.611 474.62C290.116 471.822 293.563 469.652 298.364 467.342Z"/><path fill="#E49B29" transform="matrix(0.670139 0 0 0.669643 0 1.52588e-05)" d="M253.399 406.888C253.927 406.901 255.604 406.986 255.985 407.241C259.836 409.823 272.816 428.839 271.014 432.571C269.328 433.242 269.217 433.268 267.422 433.558C263.452 431.819 256.078 416.882 253.991 412.461C253.023 410.411 252.799 409.084 253.399 406.888Z"/><path fill="#E49B29" transform="matrix(0.670139 0 0 0.669643 0 1.52588e-05)" d="M257.932 488.673C260.713 488.557 267.34 495.306 269.927 497.601C266.318 500.102 264.003 501.436 260.117 503.509C257.193 502.462 250.329 496.656 247.625 494.482C250.704 492.544 254.696 490.468 257.932 488.673Z"/><path fill="#E49B29" transform="matrix(0.670139 0 0 0.669643 0 1.52588e-05)" d="M230.955 458.33C232.89 458.671 238.957 466.436 240.636 468.396L230.258 473.917L229.23 474.134C226.335 473.477 222.502 466.925 220.692 464.252C224.042 462.252 227.564 460.285 230.955 458.33Z"/><path fill="#E49B29" transform="matrix(0.670139 0 0 0.669643 0 1.52588e-05)" d="M316.156 457.159C318.872 457.134 324.957 464.554 327.011 466.747L316.929 471.944C313.769 472.305 307.986 465.692 305.663 463.398C308.614 461.337 312.952 459.003 316.156 457.159Z"/><path fill="#E49B29" transform="matrix(0.670139 0 0 0.669643 0 1.52588e-05)" d="M309.471 355.625L310.011 356.321C309.175 361.151 288.639 371.015 283.657 373.041C283.175 370.849 282.97 367.977 282.731 365.698C290.896 362.375 301.153 357.882 309.471 355.625Z"/><path fill="#E49B29" transform="matrix(0.670139 0 0 0.669643 0 1.52588e-05)" d="M273.006 500.693C276.656 501.94 281.486 505.547 284.499 507.986C281.396 510.316 278.22 512.548 274.977 514.678C270.4 512.277 266.869 509.636 262.945 506.318C266.511 504.16 269.229 502.521 273.006 500.693Z"/><path fill="#E49B29" transform="matrix(0.670139 0 0 0.669643 0 1.52588e-05)" d="M773.643 534.549C775.291 534.342 778.381 534.348 780.15 534.295C780.753 537.974 781.136 542.522 781.556 546.287L771.349 543.011C768.622 542.123 761.09 540.388 760.279 537.677C762.683 535.579 770.214 534.998 773.643 534.549Z"/><path fill="#E49B29" transform="matrix(0.670139 0 0 0.669643 0 1.52588e-05)" d="M328.865 470.15C331.149 470.064 338.885 476.741 341.494 478.706C337.789 480.467 334.755 481.507 330.911 482.851C327.249 483.097 321.852 477.868 318.986 475.443C321.965 474.046 325.894 471.76 328.865 470.15Z"/><path fill="#E49B29" transform="matrix(0.670139 0 0 0.669643 0 1.52588e-05)" d="M290.989 490.422C294.849 490.139 299.336 494.17 302.666 496.55C299.277 498.932 295.819 501.214 292.296 503.392C288.901 501.606 283.766 498.219 280.084 496.135L290.989 490.422Z"/><path fill="#E49B29" transform="matrix(0.670139 0 0 0.669643 0 1.52588e-05)" d="M310.856 479.765C314.08 480.632 318.617 484.618 321.378 486.817C317.909 488.738 314.822 490.115 311.224 491.728C308.282 490.767 303.479 487.222 300.753 485.343L310.856 479.765Z"/><defs><linearGradient id="gradient_3" gradientUnits="userSpaceOnUse" x1="609.35944" y1="631.16925" x2="612.49963" y2="641.47485"><stop offset="0" stop-color="#F2F1EE" stop-opacity="0"/><stop offset="1" stop-color="#EAE0E2" stop-opacity="0.027450981"/></linearGradient></defs><path fill="url(#gradient_3)" transform="matrix(0.670139 0 0 0.669643 0 1.52588e-05)" d="M613.843 634.399C621.164 634.409 629.7 635.132 637.092 635.753C621.593 637.677 606.284 639.107 590.623 637.76C593.236 635.803 603.809 637.459 607.73 635.346C609.088 634.614 612.156 634.502 613.843 634.399Z"/><path fill="#F6B945" transform="matrix(0.670139 0 0 0.669643 0 1.52588e-05)" d="M957.762 588.8L958.348 589.735C957.632 593.458 954.39 597.584 952.143 600.712L943.471 600.577L942.907 599.898C943.658 598.269 955.393 590.472 957.762 588.8Z"/><path fill="#EDEBE8" fill-opacity="0.011764706" transform="matrix(0.670139 0 0 0.669643 0 1.52588e-05)" d="M96.6934 417.396L98.0847 417.12C99.9895 420.277 102.429 421.193 104.202 423.292L104.005 424.213C105.232 426.04 104.878 427.672 105.244 430.063C104.803 430.129 103.991 430.281 103.58 430.28C101.268 426.88 98.6143 421.206 96.6934 417.396Z"/><path fill="#C3571C" transform="matrix(0.670139 0 0 0.669643 0 1.52588e-05)" d="M486.841 613.498C489.554 616.787 492.186 620.14 494.735 623.557C491.703 621.287 488.804 619.174 485.964 616.652L486.841 613.498Z"/><path fill="#E49B29" fill-opacity="0.98823529" transform="matrix(0.670139 0 0 0.669643 0 1.52588e-05)" d="M516.981 98.8811C514.489 98.7359 513.017 98.7404 510.583 98.0082L510.798 97.4197L514.013 96.6583L516.981 98.8811Z"/><path fill="#EBD7B5" fill-opacity="0.1882353" transform="matrix(0.670139 0 0 0.669643 0 1.52588e-05)" d="M589.223 94.6558L590.82 95.146C589.448 95.8937 585.719 95.4682 584.154 95.1801L589.223 94.6558Z"/><path fill="#EDEBE8" fill-opacity="0.035294119" transform="matrix(0.670139 0 0 0.669643 0 1.52588e-05)" d="M585.339 93.3397L589.223 94.6558L584.154 95.1801L585.339 93.3397Z"/><path fill="#EDEBE8" fill-opacity="0.031372551" transform="matrix(0.670139 0 0 0.669643 0 1.52588e-05)" d="M197.925 606.532L197.131 608.498C195.728 607.946 195.58 608.191 195.144 607.195L197.925 606.532Z"/><path fill="#E49B29" fill-opacity="0.20392157" transform="matrix(0.670139 0 0 0.669643 0 1.52588e-05)" d="M338.52 462.043L340.053 461.625L340.223 462.196C339.226 463.135 339.638 462.948 338.439 463.424L338.52 462.043Z"/><path fill="#EBD7B5" fill-opacity="0.054901961" transform="matrix(0.670139 0 0 0.669643 0 1.52588e-05)" d="M598.586 198.151L601.73 197.563L602.134 197.895L600.405 199.09L598.586 198.151Z"/></svg>